<svg width="43" height="43" viewBox="0 0 43 43" fill="none" xmlns="http://www.w3.org/2000/svg">
<circle opacity="0.3" cx="21.6744" cy="21.0696" r="20.9927" fill="#6C5FBC"/>
<path d="M18.2023 18.9619C18.2023 16.9135 19.8629 15.2528 21.9113 15.2528C23.9598 15.2528 25.6204 16.9135 25.6204 18.9619C25.6204 21.0104 23.9598 22.671 21.9113 22.671C19.8629 22.671 18.2023 21.0104 18.2023 18.9619Z" fill="#6C5FBC"/>
<path fill-rule="evenodd" clip-rule="evenodd" d="M12.5228 17.6808C12.915 12.9229 16.8909 9.26123 21.6649 9.26123H22.1579C26.9318 9.26123 30.9078 12.9229 31.2999 17.6808C31.5111 20.2424 30.7198 22.7861 29.0928 24.7759L23.6226 31.4657C22.7382 32.5474 21.0846 32.5474 20.2001 31.4657L14.73 24.7759C13.1029 22.7861 12.3117 20.2424 12.5228 17.6808ZM21.9113 13.541C18.9174 13.541 16.4904 15.968 16.4904 18.9619C16.4904 21.9559 18.9174 24.3829 21.9113 24.3829C24.9053 24.3829 27.3323 21.9559 27.3323 18.9619C27.3323 15.968 24.9053 13.541 21.9113 13.541Z" fill="#6C5FBC"/>
</svg>
