<svg width="43" height="43" viewBox="0 0 43 43" fill="none" xmlns="http://www.w3.org/2000/svg">
<circle opacity="0.3" cx="21.6744" cy="21.0406" r="20.9927" fill="#6C5FBC"/>
<path fill-rule="evenodd" clip-rule="evenodd" d="M11.1777 21.6968C11.1777 15.5375 16.1708 10.5444 22.3301 10.5444C28.4894 10.5444 33.4825 15.5375 33.4825 21.6968C33.4825 27.8561 28.4894 32.8492 22.3301 32.8492C16.1708 32.8492 11.1777 27.8561 11.1777 21.6968ZM23.3142 15.1366C23.3142 14.5931 22.8736 14.1526 22.3301 14.1526C21.7867 14.1526 21.3461 14.5931 21.3461 15.1366V21.6968C21.3461 22.0361 21.5209 22.3515 21.8086 22.5313L25.7447 24.9914C26.2056 25.2794 26.8127 25.1393 27.1007 24.6784C27.3887 24.2176 27.2486 23.6105 26.7878 23.3224L23.3142 21.1514V15.1366Z" fill="#6C5FBC"/>
</svg>
